HIERARCHY
ROOT Hips
{
	OFFSET 0.00000 0.00000 0.00000
	CHANNELS 6 Xposition Yposition Zposition Zrotation Yrotation Xrotation 
	JOINT LHipJoint
	{
		OFFSET 0 0 0
		CHANNELS 3 Zrotation Yrotation Xrotation
		JOINT LeftHip
		{
			OFFSET 1.48831 -1.59570 0.95625
			CHANNELS 3 Zrotation Yrotation Xrotation
			JOINT LeftKnee
			{
				OFFSET 2.20856 -6.06797 0.00000
				CHANNELS 3 Zrotation Yrotation Xrotation
				JOINT LeftAnkle
				{
					OFFSET 2.62924 -7.22379 0.00000
					CHANNELS 3 Zrotation Yrotation Xrotation
					JOINT LeftToe
					{
						OFFSET 0.16802 -0.46163 2.41673
						CHANNELS 3 Zrotation Yrotation Xrotation
						End Site
						{
							OFFSET 0.00000 -0.00000 1.23760
						}
					}
				}
			}
		}
	}
	JOINT RHipJoint
	{
		OFFSET 0 0 0
		CHANNELS 3 Zrotation Yrotation Xrotation
		JOINT RightHip
		{
			OFFSET -1.56796 -1.59570 0.95625
			CHANNELS 3 Zrotation Yrotation Xrotation
			JOINT RightKnee
			{
				OFFSET -2.29239 -6.29829 0.00000
				CHANNELS 3 Zrotation Yrotation Xrotation
				JOINT RightAnkle
				{
					OFFSET -2.66963 -7.33475 0.00000
					CHANNELS 3 Zrotation Yrotation Xrotation
					JOINT RightToe
					{
						OFFSET -0.18185 -0.49964 2.34359
						CHANNELS 3 Zrotation Yrotation Xrotation
						End Site
						{
							OFFSET -0.00000 -0.00000 1.20477
						}
					}
				}
			}
		}
	}
	JOINT lowerback
	{
		OFFSET 0 0 0
		CHANNELS 3 Zrotation Yrotation Xrotation
		JOINT Chest
		{
			OFFSET 0.03505 2.15832 -0.34324
			CHANNELS 3 Zrotation Yrotation Xrotation
			JOINT Chest2
			{
				OFFSET -0.01089 2.17963 0.04689
				CHANNELS 3 Zrotation Yrotation Xrotation
				JOINT lowerneck
				{
					OFFSET 0 0 0
					CHANNELS 3 Zrotation Yrotation Xrotation
					JOINT Neck
					{
						OFFSET 0.04686 1.69404 0.22159
						CHANNELS 3 Zrotation Yrotation Xrotation
						JOINT Head
						{
							OFFSET 0.00265 1.69305 -0.01513
							CHANNELS 3 Zrotation Yrotation Xrotation
							End Site
							{
								OFFSET -0.00415 1.80215 -0.03034
							}
						}
					}
				}
				JOINT LeftCollar
				{
					OFFSET 0 0 0
					CHANNELS 3 Zrotation Yrotation Xrotation
					JOINT LeftShoulder
					{
						OFFSET 3.67184 1.11724 -0.19002
CHANNELS 3 Zrotation Xrotation Yrotation
						JOINT LeftElbow
						{
OFFSET 0 -5.177140 -0.000000
CHANNELS 3 Zrotation Xrotation Yrotation
							JOINT LeftWrist
							{
OFFSET 0 -3.436790 -0.000000
CHANNELS 3 Zrotation Xrotation Yrotation
								JOINT lhand
								{
									OFFSET 0 0 0
CHANNELS 3 Zrotation Xrotation Yrotation
									JOINT LFingers
									{
OFFSET 0 -0.573120 -0.000000
CHANNELS 3 Zrotation Xrotation Yrotation
										End Site
										{
OFFSET 0 -0.462060 -0.000000
										}
									}
								}
								JOINT LThumb
								{
OFFSET 0 0.000000 0.000000
CHANNELS 3 Zrotation Xrotation Yrotation
									End Site
									{
OFFSET 0 -0.469120 0.469120
									}
								}
							}
						}
					}
				}
				JOINT RightCollar
				{
					OFFSET 0 0 0
					CHANNELS 3 Zrotation Yrotation Xrotation
					JOINT RightShoulder
					{
						OFFSET -3.59596 0.95831 -0.26050
CHANNELS 3 Zrotation Xrotation Yrotation
						JOINT RightElbow
						{
OFFSET 0 -5.239080 -0.000000
CHANNELS 3 Zrotation Xrotation Yrotation
							JOINT RightWrist
							{
OFFSET 0 -3.464850 -0.000000
CHANNELS 3 Zrotation Xrotation Yrotation
								JOINT rhand
								{
									OFFSET 0 0 0
CHANNELS 3 Zrotation Xrotation Yrotation
									JOINT RFingers
									{
OFFSET 0 -0.608750 -0.000000
CHANNELS 3 Zrotation Xrotation Yrotation
										End Site
										{
OFFSET 0 -0.490790 -0.000000
										}
									}
								}
								JOINT RThumb
								{
OFFSET 0 0.000000 0.000000
CHANNELS 3 Zrotation Xrotation Yrotation
									End Site
									{
OFFSET 0 -0.498290 0.498290
									}
								}
							}
						}
					}
				}
			}
		}
	}
}
MOTION
Frames: 5
Frame Time: 0.008333333333333333
49.612400 15.919300 16.287600 -171.686000 -60.098300 170.521000 0.000000 0.000000 0.000000 -13.985300 4.454300 -6.231200 2.221900 9.313700 26.781500 1.209300 -4.180500 -19.822700 0.030100 -1.120000 -3.079100 0.000000 0.000000 0.000000 27.664900 2.712600 -7.816300 -3.361200 -11.258000 33.154900 -1.988400 -5.929700 -29.295300 -0.007100 -0.542600 1.491000 4.526400 -1.511700 0.797100 2.100700 -2.239000 3.462200 -0.412400 -1.075600 3.036500 -0.078200 -2.249900 -0.738200 5.153000 -2.901400 -5.979700 1.669200 -1.603800 -1.661100 0.000000 -0.000000 0.000000 -0.042400 -2.763500 -14.849200 15.462000 -24.785800 3.417300 16.952900 -17.890600 -7.154100 0.000000 0.000000 0.000000 -7.125000 0.000000 0.000000 -8.362700 37.337900 -1.590300 0.000000 -0.000000 0.000000 -1.030500 1.158500 13.227200 -13.232300 -21.626700 -2.538300 -19.287300 4.737800 3.444800 0.000000 0.000000 0.000000 7.125000 0.000000 -0.000000 5.990600 33.584700 1.684600
49.606421 15.921311 16.303519 -171.876564 -59.663031 170.831688 0.000000 0.000000 0.000000 -14.136674 4.544254 -6.263624 2.204591 9.279830 26.674552 1.226512 -3.819532 -20.019518 0.029637 -1.111163 -3.054638 0.000000 0.000000 0.000000 27.553474 2.976619 -7.941587 -3.375339 -11.279193 33.227328 -1.978556 -5.810930 -29.167268 -0.005700 -0.489151 1.343964 4.129301 -1.590619 0.910384 2.279096 -2.319054 3.172204 -0.001310 -1.135312 2.689490 -0.023726 -2.086631 -0.699938 4.634440 -2.702279 -5.488051 1.483548 -1.479552 -1.521446 0.000000 0.000000 0.000000 -0.256095 -2.681483 -15.063019 15.755829 -25.188480 3.541406 16.725326 -17.969963 -7.739172 0.000000 0.000000 0.000000 -7.125000 0.000000 0.000000 -8.643862 37.926167 -1.518990 0.000000 0.000000 0.000000 -1.441749 1.403747 14.247560 -13.604605 -22.166593 -2.677089 -19.182543 4.305227 3.675246 0.000000 0.000000 0.000000 7.125000 0.000000 0.000000 6.097138 33.823598 1.679377
49.605995 15.924322 16.320001 -172.118252 -59.279953 171.170644 0.000000 0.000000 0.000000 -14.296532 4.685666 -6.338054 2.186073 9.243277 26.559419 1.232268 -3.580214 -20.105371 0.028763 -1.095478 -3.011550 0.000000 0.000000 0.000000 27.404636 3.190743 -8.100776 -3.389901 -11.300898 33.301688 -1.962736 -5.698505 -29.004084 -0.005568 -0.480982 1.321591 3.839094 -1.624293 1.029197 2.348578 -2.343154 2.982368 0.238059 -1.158839 2.438565 0.024964 -1.976069 -0.767870 4.354413 -2.566617 -5.246114 1.379763 -1.400055 -1.438985 0.000000 0.000000 0.000000 -0.339608 -2.685074 -15.438457 15.939484 -25.438478 3.619892 16.734659 -18.041353 -7.907369 0.000000 0.000000 0.000000 -7.125000 0.000000 0.000000 -8.662485 38.099935 -1.485097 0.000000 0.000000 0.000000 -1.716225 1.434108 15.166016 -14.033160 -22.782068 -2.841013 -19.072667 3.787637 3.724760 0.000000 0.000000 0.000000 7.125000 0.000000 0.000000 6.191484 33.871624 1.698381
49.609266 15.926985 16.337103 -172.405499 -58.937578 171.502781 0.000000 0.000000 0.000000 -14.471533 4.855229 -6.402018 2.167544 9.206589 26.443795 1.229619 -3.426576 -20.108010 0.028205 -1.083644 -2.979009 0.000000 0.000000 0.000000 27.213639 3.336926 -8.264681 -3.410074 -11.331016 33.404518 -1.947073 -5.547644 -28.820613 -0.005348 -0.472414 1.298056 3.651071 -1.632836 1.077955 2.323849 -2.347589 2.962039 0.319215 -1.164970 2.395509 0.118715 -1.916786 -0.886173 4.201631 -2.494850 -5.312759 1.313806 -1.364268 -1.443629 0.000000 0.000000 0.000000 -0.358903 -2.827788 -15.781788 16.032213 -25.564277 3.659883 16.853000 -18.207118 -7.883948 0.000000 0.000000 0.000000 -7.125000 0.000000 0.000000 -8.558534 38.083814 -1.470285 0.000000 0.000000 0.000000 -1.872351 1.194626 16.024608 -14.497532 -23.441413 -3.023268 -19.096455 3.247648 3.821665 0.000000 0.000000 0.000000 7.125000 0.000000 0.000000 6.181251 33.974402 1.680052
49.613944 15.929481 16.352784 -172.639257 -58.604689 171.800579 0.000000 0.000000 0.000000 -14.626495 4.953618 -6.478856 2.154160 9.180121 26.360254 1.231878 -3.211158 -20.164155 0.028654 -1.092494 -3.003378 0.000000 0.000000 0.000000 27.077315 3.565228 -8.412519 -3.430082 -11.360677 33.506198 -1.931509 -5.484287 -28.684933 -0.005337 -0.470607 1.293064 3.460965 -1.649934 1.135382 2.323815 -2.364454 2.941150 0.426914 -1.178061 2.348225 0.071549 -1.785235 -1.092477 4.194152 -2.325831 -5.315792 1.315010 -1.278435 -1.412401 0.000000 0.000000 0.000000 -0.460399 -2.869806 -15.911192 16.007366 -25.530632 3.649170 16.976033 -18.286673 -7.849271 0.000000 0.000000 0.000000 -7.125000 0.000000 0.000000 -8.448853 38.056473 -1.456865 0.000000 0.000000 0.000000 -2.064964 0.958696 17.001088 -14.973183 -24.108663 -3.214995 -19.475309 2.423411 3.850229 0.000000 0.000000 0.000000 7.125000 0.000000 0.000000 5.874485 34.018657 1.589581
